<svg xmlns="http://www.w3.org/2000/svg" width="28.737" height="30.55" viewBox="0 0 28.737 30.55">
    <defs>
        <style>.a{fill:#fff;}</style>
    </defs>
    <g transform="translate(7.184)">
        <path class="a"
              d="M3.427,1.715A7.186,7.186,0,0,1-3.756,8.9a7.187,7.187,0,0,1-7.185-7.189A7.187,7.187,0,0,1-3.756-5.474,7.186,7.186,0,0,1,3.427,1.715"
              transform="translate(10.941 5.474)"/>
    </g>
    <g transform="translate(0 16.174)">
        <path class="a"
              d="M6.855,3.429V-3.76A3.75,3.75,0,0,0,5.418-6.634a19.606,19.606,0,0,0-7-3.414,20.516,20.516,0,0,0-5.927-.9,22.6,22.6,0,0,0-5.927.9,23.119,23.119,0,0,0-7,3.414A3.75,3.75,0,0,0-21.882-3.76V3.429Z"
              transform="translate(21.882 10.947)"/>
    </g>
</svg>