<svg width="22" height="21" viewBox="0 0 22 21" fill="none" xmlns="http://www.w3.org/2000/svg">
    <path d="M21.7522 18.0474C22.4571 19.3597 21.5722 21 20.1641 21H1.83516C0.424374 21 -0.456466 19.3571 0.247152 18.0474L9.41176 0.98376C10.1171 -0.329109 11.8837 -0.32673 12.5878 0.98376L21.7522 18.0474ZM10.9998 14.5195C10.0294 14.5195 9.24282 15.3642 9.24282 16.4062C9.24282 17.4483 10.0294 18.293 10.9998 18.293C11.9701 18.293 12.7567 17.4483 12.7567 16.4062C12.7567 15.3642 11.9701 14.5195 10.9998 14.5195ZM9.3317 7.73776L9.61503 13.3159C9.62828 13.5769 9.82926 13.7812 10.0727 13.7812H11.9269C12.1703 13.7812 12.3713 13.5769 12.3845 13.3159L12.6678 7.73776C12.6822 7.45582 12.4731 7.21875 12.2102 7.21875H9.78931C9.52638 7.21875 9.31738 7.45582 9.3317 7.73776Z"
          fill="#F8C33B"/>
</svg>
