<svg xmlns="http://www.w3.org/2000/svg" width="28.737" height="30.549" viewBox="0 0 28.737 30.549">
    <defs>
        <style>.a{fill:#fff;}</style>
    </defs>
    <path class="a"
          d="M3.422,4.929A5.25,5.25,0,0,1-1.642-.462,5.25,5.25,0,0,1,3.422-5.852,5.25,5.25,0,0,1,8.486-.462,5.25,5.25,0,0,1,3.422,4.929M14.816-3.831a12.2,12.2,0,0,0-1.1-2.785l1.055-3.37-2.4-2.561L9.2-11.423a11.784,11.784,0,0,0-2.658-1.169L5.11-15.736H1.735L.257-12.592a10.7,10.7,0,0,0-2.616,1.169l-3.165-1.124-2.4,2.561,1.055,3.37a13.431,13.431,0,0,0-1.1,2.83l-2.953,1.527V1.335l2.953,1.573a12.2,12.2,0,0,0,1.1,2.785L-7.928,9.062l2.4,2.561L-2.359,10.5A11.779,11.779,0,0,0,.3,11.668l1.477,3.145H5.152l1.477-3.145A10.692,10.692,0,0,0,9.245,10.5l3.165,1.123,2.406-2.561L13.76,5.694a13.442,13.442,0,0,0,1.1-2.831L17.812,1.29V-2.3Z"
          transform="translate(10.925 15.736)"/>
</svg>